<svg xmlns="http://www.w3.org/2000/svg" xmlns:xlink="http://www.w3.org/1999/xlink" width="1080" zoomAndPan="magnify" viewBox="0 0 810 809.999993" height="1080" preserveAspectRatio="xMidYMid meet" version="1.0"><defs><g/><clipPath id="dcf8e82cb0"><path d="M 204 146.503906 L 606 146.503906 L 606 493.753906 L 204 493.753906 Z M 204 146.503906 " clip-rule="nonzero"/></clipPath></defs><g clip-path="url(#dcf8e82cb0)"><path fill="#000000" d="M 601.761719 456.320312 L 422.152344 156.378906 C 418.464844 150.21875 411.96875 146.542969 404.777344 146.542969 C 397.585938 146.542969 391.09375 150.21875 387.40625 156.378906 L 207.792969 456.320312 C 203.164062 464.050781 203.042969 473.335938 207.464844 481.152344 C 211.890625 488.96875 219.910156 493.636719 228.917969 493.636719 L 580.636719 493.636719 C 589.644531 493.636719 597.664062 488.96875 602.089844 481.152344 C 606.515625 473.335938 606.394531 464.050781 601.761719 456.320312 Z M 590.460938 474.558594 C 588.4375 478.125 584.765625 480.257812 580.636719 480.257812 L 228.917969 480.257812 C 224.789062 480.257812 221.117188 478.125 219.097656 474.558594 C 217.078125 470.988281 217.140625 466.742188 219.261719 463.195312 L 398.875 163.253906 C 400.675781 160.246094 403.605469 159.921875 404.777344 159.921875 C 405.953125 159.921875 408.882812 160.246094 410.683594 163.253906 L 590.296875 463.195312 C 592.417969 466.742188 592.480469 470.988281 590.460938 474.558594 Z M 410.511719 186.863281 C 409.304688 184.847656 407.128906 183.613281 404.777344 183.613281 C 402.429688 183.613281 400.253906 184.847656 399.042969 186.863281 L 236.773438 457.847656 C 235.539062 459.914062 235.503906 462.484375 236.691406 464.582031 C 237.878906 466.679688 240.101562 467.972656 242.507812 467.972656 L 567.050781 467.972656 C 569.457031 467.972656 571.679688 466.679688 572.863281 464.582031 C 574.050781 462.484375 574.019531 459.914062 572.78125 457.847656 Z M 254.304688 454.59375 L 404.777344 203.316406 L 555.25 454.597656 L 254.304688 454.597656 Z M 379.324219 272.183594 C 379.324219 272.328125 379.332031 272.476562 379.339844 272.621094 L 386.269531 378.257812 C 386.398438 389.695312 395.601562 395.863281 404.265625 395.863281 C 412.929688 395.863281 422.132812 389.695312 422.261719 378.257812 L 429.191406 272.621094 C 429.203125 272.476562 429.207031 272.328125 429.207031 272.183594 C 429.207031 255.972656 416.660156 247.488281 404.265625 247.488281 C 391.871094 247.488281 379.324219 255.972656 379.324219 272.183594 Z M 415.835938 271.980469 L 408.90625 377.578125 C 408.898438 377.726562 408.890625 377.871094 408.890625 378.019531 C 408.890625 382.046875 405.65625 382.484375 404.265625 382.484375 C 402.875 382.484375 399.636719 382.046875 399.636719 378.019531 C 399.636719 377.871094 399.632812 377.726562 399.621094 377.578125 L 392.695312 271.980469 C 392.792969 263.785156 398.96875 260.867188 404.265625 260.867188 C 409.558594 260.867188 415.734375 263.785156 415.835938 271.980469 Z M 404.265625 397.902344 C 392.554688 397.902344 383.027344 407.4375 383.027344 419.15625 C 383.027344 430.875 392.554688 440.410156 404.265625 440.410156 C 415.976562 440.410156 425.503906 430.875 425.503906 419.15625 C 425.503906 407.4375 415.976562 397.902344 404.265625 397.902344 Z M 404.265625 427.03125 C 399.925781 427.03125 396.394531 423.5 396.394531 419.15625 C 396.394531 414.8125 399.925781 411.28125 404.265625 411.28125 C 408.605469 411.28125 412.136719 414.8125 412.136719 419.15625 C 412.136719 423.5 408.605469 427.03125 404.265625 427.03125 Z M 404.265625 427.03125 " fill-opacity="1" fill-rule="nonzero"/></g><g fill="#000000" fill-opacity="1"><g transform="translate(190.424993, 575.016135)"><g><path d="M 10.09375 0 L 4.078125 0 L 4.078125 -31.40625 L 11.1875 -31.40625 L 23.8125 -11.171875 L 24.359375 -11.265625 L 24.359375 -31.40625 L 30.34375 -31.40625 L 30.34375 0 L 23.984375 0 L 10.640625 -21.609375 L 10.09375 -21.53125 Z M 10.09375 0 "/></g></g></g><g fill="#000000" fill-opacity="1"><g transform="translate(224.85833, 575.016135)"><g><path d="M 13.765625 0.453125 C 11.453125 0.453125 9.414062 -0.0195312 7.65625 -0.96875 C 5.90625 -1.925781 4.546875 -3.320312 3.578125 -5.15625 C 2.609375 -7 2.125 -9.226562 2.125 -11.84375 C 2.125 -14.445312 2.609375 -16.671875 3.578125 -18.515625 C 4.546875 -20.367188 5.90625 -21.769531 7.65625 -22.71875 C 9.414062 -23.675781 11.453125 -24.15625 13.765625 -24.15625 C 16.085938 -24.15625 18.125 -23.675781 19.875 -22.71875 C 21.632812 -21.769531 23 -20.367188 23.96875 -18.515625 C 24.945312 -16.671875 25.4375 -14.445312 25.4375 -11.84375 C 25.4375 -9.226562 24.945312 -7 23.96875 -5.15625 C 23 -3.320312 21.632812 -1.925781 19.875 -0.96875 C 18.125 -0.0195312 16.085938 0.453125 13.765625 0.453125 Z M 13.765625 -4.59375 C 17.453125 -4.59375 19.296875 -7.007812 19.296875 -11.84375 C 19.296875 -14.34375 18.820312 -16.175781 17.875 -17.34375 C 16.925781 -18.507812 15.554688 -19.09375 13.765625 -19.09375 C 10.085938 -19.09375 8.25 -16.675781 8.25 -11.84375 C 8.25 -7.007812 10.085938 -4.59375 13.765625 -4.59375 Z M 13.765625 -4.59375 "/></g></g></g><g fill="#000000" fill-opacity="1"><g transform="translate(252.396407, 575.016135)"><g/></g></g><g fill="#000000" fill-opacity="1"><g transform="translate(262.771517, 575.016135)"><g><path d="M 10.296875 -13.796875 L 10.296875 -5.203125 L 25.28125 -5.203125 L 25.28125 0 L 4.078125 0 L 4.078125 -31.40625 L 24.9375 -31.40625 L 24.9375 -26.21875 L 10.296875 -26.21875 L 10.296875 -18.859375 L 23.09375 -18.859375 L 23.09375 -13.796875 Z M 10.296875 -13.796875 "/></g></g></g><g fill="#000000" fill-opacity="1"><g transform="translate(289.77258, 575.016135)"><g><path d="M 16.3125 0 L 9.21875 0 L 0.453125 -23.703125 L 6.6875 -23.703125 L 12.5625 -6.8125 L 13.0625 -6.8125 L 18.96875 -23.703125 L 25.046875 -23.703125 Z M 16.3125 0 "/></g></g></g><g fill="#000000" fill-opacity="1"><g transform="translate(315.248523, 575.016135)"><g><path d="M 23.421875 -10.5 L 8.1875 -10.5 C 8.351562 -8.4375 8.9375 -6.9375 9.9375 -6 C 10.945312 -5.0625 12.316406 -4.59375 14.046875 -4.59375 C 15.410156 -4.59375 16.515625 -4.847656 17.359375 -5.359375 C 18.203125 -5.867188 18.882812 -6.640625 19.40625 -7.671875 L 19.859375 -7.671875 L 23.8125 -5.140625 C 23.03125 -3.472656 21.859375 -2.125 20.296875 -1.09375 C 18.742188 -0.0625 16.660156 0.453125 14.046875 0.453125 C 11.597656 0.453125 9.484375 -0.0078125 7.703125 -0.9375 C 5.921875 -1.875 4.546875 -3.257812 3.578125 -5.09375 C 2.609375 -6.9375 2.125 -9.1875 2.125 -11.84375 C 2.125 -14.53125 2.628906 -16.796875 3.640625 -18.640625 C 4.660156 -20.492188 6.035156 -21.875 7.765625 -22.78125 C 9.503906 -23.695312 11.457031 -24.15625 13.625 -24.15625 C 16.976562 -24.15625 19.546875 -23.265625 21.328125 -21.484375 C 23.109375 -19.710938 24 -17.109375 24 -13.671875 C 24 -12.421875 23.957031 -11.453125 23.875 -10.765625 Z M 18.3125 -14.359375 C 18.25 -16.160156 17.828125 -17.472656 17.046875 -18.296875 C 16.265625 -19.117188 15.125 -19.53125 13.625 -19.53125 C 10.613281 -19.53125 8.84375 -17.804688 8.3125 -14.359375 Z M 18.3125 -14.359375 "/></g></g></g><g fill="#000000" fill-opacity="1"><g transform="translate(341.003714, 575.016135)"><g><path d="M 3.421875 0 L 3.421875 -23.703125 L 9.125 -23.703125 L 9.125 -20.21875 L 9.578125 -20.109375 C 11.054688 -22.804688 13.453125 -24.15625 16.765625 -24.15625 C 19.492188 -24.15625 21.5 -23.410156 22.78125 -21.921875 C 24.0625 -20.429688 24.703125 -18.257812 24.703125 -15.40625 L 24.703125 0 L 18.75 0 L 18.75 -14.671875 C 18.75 -16.242188 18.429688 -17.378906 17.796875 -18.078125 C 17.171875 -18.773438 16.164062 -19.125 14.78125 -19.125 C 13.070312 -19.125 11.742188 -18.570312 10.796875 -17.46875 C 9.847656 -16.363281 9.375 -14.628906 9.375 -12.265625 L 9.375 0 Z M 3.421875 0 "/></g></g></g><g fill="#000000" fill-opacity="1"><g transform="translate(368.756596, 575.016135)"><g><path d="M 16.34375 -5.65625 L 17.890625 -1.25 C 17.253906 -0.71875 16.445312 -0.300781 15.46875 0 C 14.5 0.300781 13.394531 0.453125 12.15625 0.453125 C 9.59375 0.453125 7.644531 -0.242188 6.3125 -1.640625 C 4.976562 -3.035156 4.3125 -5.066406 4.3125 -7.734375 L 4.3125 -19 L 0.703125 -19 L 0.703125 -23.71875 L 4.3125 -23.71875 L 4.3125 -28.34375 L 10.265625 -29.3125 L 10.265625 -23.71875 L 17 -23.71875 L 17 -19 L 10.265625 -19 L 10.265625 -8.171875 C 10.265625 -6.992188 10.507812 -6.132812 11 -5.59375 C 11.488281 -5.0625 12.195312 -4.796875 13.125 -4.796875 C 14.1875 -4.796875 15.113281 -5.082031 15.90625 -5.65625 Z M 16.34375 -5.65625 "/></g></g></g><g fill="#000000" fill-opacity="1"><g transform="translate(387.165446, 575.016135)"><g><path d="M 11.09375 0.453125 C 9.46875 0.453125 7.984375 0.265625 6.640625 -0.109375 C 5.296875 -0.492188 4.144531 -1.019531 3.1875 -1.6875 C 2.238281 -2.351562 1.535156 -3.113281 1.078125 -3.96875 L 4.390625 -7.546875 L 4.828125 -7.546875 C 5.617188 -6.484375 6.550781 -5.6875 7.625 -5.15625 C 8.695312 -4.625 9.863281 -4.359375 11.125 -4.359375 C 12.289062 -4.359375 13.164062 -4.566406 13.75 -4.984375 C 14.332031 -5.398438 14.625 -5.992188 14.625 -6.765625 C 14.625 -7.367188 14.410156 -7.875 13.984375 -8.28125 C 13.566406 -8.6875 12.890625 -9.003906 11.953125 -9.234375 L 8.8125 -9.984375 C 6.457031 -10.546875 4.738281 -11.398438 3.65625 -12.546875 C 2.582031 -13.703125 2.046875 -15.171875 2.046875 -16.953125 C 2.046875 -18.429688 2.421875 -19.710938 3.171875 -20.796875 C 3.921875 -21.890625 4.976562 -22.722656 6.34375 -23.296875 C 7.71875 -23.867188 9.3125 -24.15625 11.125 -24.15625 C 13.257812 -24.15625 15.03125 -23.84375 16.4375 -23.21875 C 17.84375 -22.601562 18.9375 -21.78125 19.71875 -20.75 L 16.546875 -17.3125 L 16.109375 -17.3125 C 15.453125 -18.0625 14.710938 -18.609375 13.890625 -18.953125 C 13.066406 -19.296875 12.144531 -19.46875 11.125 -19.46875 C 8.78125 -19.46875 7.609375 -18.738281 7.609375 -17.28125 C 7.609375 -16.65625 7.828125 -16.148438 8.265625 -15.765625 C 8.703125 -15.378906 9.472656 -15.066406 10.578125 -14.828125 L 13.5 -14.1875 C 15.90625 -13.664062 17.660156 -12.832031 18.765625 -11.6875 C 19.878906 -10.550781 20.4375 -9.023438 20.4375 -7.109375 C 20.4375 -5.609375 20.0625 -4.285156 19.3125 -3.140625 C 18.570312 -1.992188 17.5 -1.109375 16.09375 -0.484375 C 14.6875 0.140625 13.019531 0.453125 11.09375 0.453125 Z M 11.09375 0.453125 "/></g></g></g><g fill="#000000" fill-opacity="1"><g transform="translate(409.011164, 575.016135)"><g/></g></g><g fill="#000000" fill-opacity="1"><g transform="translate(419.386286, 575.016135)"><g><path d="M 30.140625 0 L 23.609375 0 L 21.25 -7.234375 L 9.21875 -7.234375 L 6.859375 0 L 0.46875 0 L 11.328125 -31.40625 L 19.296875 -31.40625 Z M 14.9375 -24.859375 L 10.890625 -12.46875 L 19.53125 -12.46875 L 15.46875 -24.859375 Z M 14.9375 -24.859375 "/></g></g></g><g fill="#000000" fill-opacity="1"><g transform="translate(449.996071, 575.016135)"><g><path d="M 16.3125 0 L 9.21875 0 L 0.453125 -23.703125 L 6.6875 -23.703125 L 12.5625 -6.8125 L 13.0625 -6.8125 L 18.96875 -23.703125 L 25.046875 -23.703125 Z M 16.3125 0 "/></g></g></g><g fill="#000000" fill-opacity="1"><g transform="translate(475.472014, 575.016135)"><g><path d="M 9.234375 0.453125 C 7.722656 0.453125 6.40625 0.175781 5.28125 -0.375 C 4.164062 -0.9375 3.304688 -1.757812 2.703125 -2.84375 C 2.109375 -3.925781 1.8125 -5.226562 1.8125 -6.75 C 1.8125 -8.15625 2.109375 -9.332031 2.703125 -10.28125 C 3.304688 -11.226562 4.238281 -12.003906 5.5 -12.609375 C 6.757812 -13.222656 8.40625 -13.695312 10.4375 -14.03125 C 11.851562 -14.257812 12.929688 -14.507812 13.671875 -14.78125 C 14.410156 -15.050781 14.910156 -15.359375 15.171875 -15.703125 C 15.429688 -16.046875 15.5625 -16.484375 15.5625 -17.015625 C 15.5625 -17.773438 15.296875 -18.351562 14.765625 -18.75 C 14.234375 -19.15625 13.351562 -19.359375 12.125 -19.359375 C 10.800781 -19.359375 9.546875 -19.0625 8.359375 -18.46875 C 7.171875 -17.882812 6.140625 -17.113281 5.265625 -16.15625 L 4.828125 -16.15625 L 2.34375 -19.921875 C 3.539062 -21.253906 5.003906 -22.289062 6.734375 -23.03125 C 8.472656 -23.78125 10.367188 -24.15625 12.421875 -24.15625 C 15.554688 -24.15625 17.820312 -23.488281 19.21875 -22.15625 C 20.625 -20.820312 21.328125 -18.929688 21.328125 -16.484375 L 21.328125 -6.1875 C 21.328125 -5.125 21.796875 -4.59375 22.734375 -4.59375 C 23.085938 -4.59375 23.4375 -4.660156 23.78125 -4.796875 L 24.078125 -4.703125 L 24.515625 -0.5625 C 24.179688 -0.34375 23.722656 -0.164062 23.140625 -0.03125 C 22.554688 0.101562 21.910156 0.171875 21.203125 0.171875 C 19.785156 0.171875 18.675781 -0.0976562 17.875 -0.640625 C 17.082031 -1.191406 16.515625 -2.046875 16.171875 -3.203125 L 15.734375 -3.25 C 14.566406 -0.78125 12.398438 0.453125 9.234375 0.453125 Z M 11.125 -4 C 12.5 -4 13.597656 -4.457031 14.421875 -5.375 C 15.242188 -6.300781 15.65625 -7.585938 15.65625 -9.234375 L 15.65625 -11.640625 L 15.25 -11.734375 C 14.894531 -11.441406 14.425781 -11.195312 13.84375 -11 C 13.269531 -10.8125 12.4375 -10.625 11.34375 -10.4375 C 10.050781 -10.226562 9.125 -9.859375 8.5625 -9.328125 C 8 -8.804688 7.71875 -8.066406 7.71875 -7.109375 C 7.71875 -6.097656 8.015625 -5.328125 8.609375 -4.796875 C 9.210938 -4.265625 10.050781 -4 11.125 -4 Z M 11.125 -4 "/></g></g></g><g fill="#000000" fill-opacity="1"><g transform="translate(500.453893, 575.016135)"><g><path d="M 9.84375 0.453125 C 7.707031 0.453125 6.078125 -0.125 4.953125 -1.28125 C 3.828125 -2.4375 3.265625 -4.1875 3.265625 -6.53125 L 3.265625 -33.21875 L 9.21875 -33.21875 L 9.21875 -6.765625 C 9.21875 -5.316406 9.816406 -4.59375 11.015625 -4.59375 C 11.359375 -4.59375 11.726562 -4.648438 12.125 -4.765625 L 12.421875 -4.6875 L 12.953125 -0.109375 C 12.628906 0.0664062 12.191406 0.203125 11.640625 0.296875 C 11.097656 0.398438 10.5 0.453125 9.84375 0.453125 Z M 9.84375 0.453125 "/></g></g></g><g fill="#000000" fill-opacity="1"><g transform="translate(514.072568, 575.016135)"><g><path d="M 6.375 -26.53125 C 5.300781 -26.53125 4.425781 -26.851562 3.75 -27.5 C 3.082031 -28.15625 2.75 -29 2.75 -30.03125 C 2.75 -31.050781 3.082031 -31.882812 3.75 -32.53125 C 4.425781 -33.1875 5.300781 -33.515625 6.375 -33.515625 C 7.09375 -33.515625 7.726562 -33.363281 8.28125 -33.0625 C 8.84375 -32.757812 9.28125 -32.347656 9.59375 -31.828125 C 9.90625 -31.304688 10.0625 -30.707031 10.0625 -30.03125 C 10.0625 -29.363281 9.90625 -28.765625 9.59375 -28.234375 C 9.28125 -27.703125 8.84375 -27.285156 8.28125 -26.984375 C 7.726562 -26.679688 7.09375 -26.53125 6.375 -26.53125 Z M 3.421875 0 L 3.421875 -23.703125 L 9.375 -23.703125 L 9.375 0 Z M 3.421875 0 "/></g></g></g><g fill="#000000" fill-opacity="1"><g transform="translate(526.832021, 575.016135)"><g><path d="M 9.234375 0.453125 C 7.722656 0.453125 6.40625 0.175781 5.28125 -0.375 C 4.164062 -0.9375 3.304688 -1.757812 2.703125 -2.84375 C 2.109375 -3.925781 1.8125 -5.226562 1.8125 -6.75 C 1.8125 -8.15625 2.109375 -9.332031 2.703125 -10.28125 C 3.304688 -11.226562 4.238281 -12.003906 5.5 -12.609375 C 6.757812 -13.222656 8.40625 -13.695312 10.4375 -14.03125 C 11.851562 -14.257812 12.929688 -14.507812 13.671875 -14.78125 C 14.410156 -15.050781 14.910156 -15.359375 15.171875 -15.703125 C 15.429688 -16.046875 15.5625 -16.484375 15.5625 -17.015625 C 15.5625 -17.773438 15.296875 -18.351562 14.765625 -18.75 C 14.234375 -19.15625 13.351562 -19.359375 12.125 -19.359375 C 10.800781 -19.359375 9.546875 -19.0625 8.359375 -18.46875 C 7.171875 -17.882812 6.140625 -17.113281 5.265625 -16.15625 L 4.828125 -16.15625 L 2.34375 -19.921875 C 3.539062 -21.253906 5.003906 -22.289062 6.734375 -23.03125 C 8.472656 -23.78125 10.367188 -24.15625 12.421875 -24.15625 C 15.554688 -24.15625 17.820312 -23.488281 19.21875 -22.15625 C 20.625 -20.820312 21.328125 -18.929688 21.328125 -16.484375 L 21.328125 -6.1875 C 21.328125 -5.125 21.796875 -4.59375 22.734375 -4.59375 C 23.085938 -4.59375 23.4375 -4.660156 23.78125 -4.796875 L 24.078125 -4.703125 L 24.515625 -0.5625 C 24.179688 -0.34375 23.722656 -0.164062 23.140625 -0.03125 C 22.554688 0.101562 21.910156 0.171875 21.203125 0.171875 C 19.785156 0.171875 18.675781 -0.0976562 17.875 -0.640625 C 17.082031 -1.191406 16.515625 -2.046875 16.171875 -3.203125 L 15.734375 -3.25 C 14.566406 -0.78125 12.398438 0.453125 9.234375 0.453125 Z M 11.125 -4 C 12.5 -4 13.597656 -4.457031 14.421875 -5.375 C 15.242188 -6.300781 15.65625 -7.585938 15.65625 -9.234375 L 15.65625 -11.640625 L 15.25 -11.734375 C 14.894531 -11.441406 14.425781 -11.195312 13.84375 -11 C 13.269531 -10.8125 12.4375 -10.625 11.34375 -10.4375 C 10.050781 -10.226562 9.125 -9.859375 8.5625 -9.328125 C 8 -8.804688 7.71875 -8.066406 7.71875 -7.109375 C 7.71875 -6.097656 8.015625 -5.328125 8.609375 -4.796875 C 9.210938 -4.265625 10.050781 -4 11.125 -4 Z M 11.125 -4 "/></g></g></g><g fill="#000000" fill-opacity="1"><g transform="translate(551.813922, 575.016135)"><g><path d="M 16.5625 0.453125 C 13.539062 0.453125 11.289062 -0.675781 9.8125 -2.9375 L 9.375 -2.859375 L 9.375 0 L 3.421875 0 L 3.421875 -33.21875 L 9.375 -33.21875 L 9.375 -20.90625 L 9.8125 -20.8125 C 10.632812 -21.945312 11.597656 -22.785156 12.703125 -23.328125 C 13.816406 -23.878906 15.144531 -24.15625 16.6875 -24.15625 C 18.613281 -24.15625 20.289062 -23.703125 21.71875 -22.796875 C 23.15625 -21.890625 24.273438 -20.515625 25.078125 -18.671875 C 25.878906 -16.835938 26.28125 -14.5625 26.28125 -11.84375 C 26.28125 -9.144531 25.863281 -6.875 25.03125 -5.03125 C 24.195312 -3.195312 23.050781 -1.820312 21.59375 -0.90625 C 20.132812 0 18.457031 0.453125 16.5625 0.453125 Z M 14.765625 -4.59375 C 16.503906 -4.59375 17.832031 -5.175781 18.75 -6.34375 C 19.664062 -7.507812 20.125 -9.34375 20.125 -11.84375 C 20.125 -14.34375 19.664062 -16.175781 18.75 -17.34375 C 17.832031 -18.507812 16.503906 -19.09375 14.765625 -19.09375 C 13.085938 -19.09375 11.753906 -18.488281 10.765625 -17.28125 C 9.785156 -16.082031 9.296875 -14.269531 9.296875 -11.84375 C 9.296875 -9.40625 9.785156 -7.585938 10.765625 -6.390625 C 11.753906 -5.191406 13.085938 -4.59375 14.765625 -4.59375 Z M 14.765625 -4.59375 "/></g></g></g><g fill="#000000" fill-opacity="1"><g transform="translate(580.18973, 575.016135)"><g><path d="M 9.84375 0.453125 C 7.707031 0.453125 6.078125 -0.125 4.953125 -1.28125 C 3.828125 -2.4375 3.265625 -4.1875 3.265625 -6.53125 L 3.265625 -33.21875 L 9.21875 -33.21875 L 9.21875 -6.765625 C 9.21875 -5.316406 9.816406 -4.59375 11.015625 -4.59375 C 11.359375 -4.59375 11.726562 -4.648438 12.125 -4.765625 L 12.421875 -4.6875 L 12.953125 -0.109375 C 12.628906 0.0664062 12.191406 0.203125 11.640625 0.296875 C 11.097656 0.398438 10.5 0.453125 9.84375 0.453125 Z M 9.84375 0.453125 "/></g></g></g><g fill="#000000" fill-opacity="1"><g transform="translate(593.808427, 575.016135)"><g><path d="M 23.421875 -10.5 L 8.1875 -10.5 C 8.351562 -8.4375 8.9375 -6.9375 9.9375 -6 C 10.945312 -5.0625 12.316406 -4.59375 14.046875 -4.59375 C 15.410156 -4.59375 16.515625 -4.847656 17.359375 -5.359375 C 18.203125 -5.867188 18.882812 -6.640625 19.40625 -7.671875 L 19.859375 -7.671875 L 23.8125 -5.140625 C 23.03125 -3.472656 21.859375 -2.125 20.296875 -1.09375 C 18.742188 -0.0625 16.660156 0.453125 14.046875 0.453125 C 11.597656 0.453125 9.484375 -0.0078125 7.703125 -0.9375 C 5.921875 -1.875 4.546875 -3.257812 3.578125 -5.09375 C 2.609375 -6.9375 2.125 -9.1875 2.125 -11.84375 C 2.125 -14.53125 2.628906 -16.796875 3.640625 -18.640625 C 4.660156 -20.492188 6.035156 -21.875 7.765625 -22.78125 C 9.503906 -23.695312 11.457031 -24.15625 13.625 -24.15625 C 16.976562 -24.15625 19.546875 -23.265625 21.328125 -21.484375 C 23.109375 -19.710938 24 -17.109375 24 -13.671875 C 24 -12.421875 23.957031 -11.453125 23.875 -10.765625 Z M 18.3125 -14.359375 C 18.25 -16.160156 17.828125 -17.472656 17.046875 -18.296875 C 16.265625 -19.117188 15.125 -19.53125 13.625 -19.53125 C 10.613281 -19.53125 8.84375 -17.804688 8.3125 -14.359375 Z M 18.3125 -14.359375 "/></g></g></g></svg>